<svg viewBox="0 0 120 120" xmlns="http://www.w3.org/2000/svg" fill="none">
  <defs>
    <linearGradient id="chili-g" x1="30" y1="30" x2="80" y2="90" gradientUnits="userSpaceOnUse">
      <stop offset="0%" stop-color="#E84233"/>
      <stop offset="100%" stop-color="#B71C1C"/>
    </linearGradient>
  </defs>
  <!-- Chili pepper body -->
  <path d="M32 48c4-8 20-14 36-8s22 20 22 32c0 6-4 10-8 10s-8-4-14-14S48 52 40 48c-4-2-8-1-8 0z" fill="url(#chili-g)"/>
  <!-- Chili highlight -->
  <path d="M40 48c4-4 14-8 24-4s14 12 16 22" stroke="#F44336" stroke-width="2.5" stroke-linecap="round" fill="none" opacity="0.4"/>
  <!-- Stem -->
  <path d="M32 48c-2-2-2-6 0-8s6-2 6 0" fill="#4CAF50"/>
  <path d="M30 38c0-3 3-4 5-3" stroke="#388E3C" stroke-width="1.5" stroke-linecap="round" fill="none"/>
  <!-- Rice grains scattered -->
  <ellipse cx="22" cy="85" rx="3" ry="1.5" fill="#F5EDE0" transform="rotate(-20 22 85)"/>
  <ellipse cx="30" cy="90" rx="3" ry="1.5" fill="#F5EDE0" transform="rotate(10 30 90)"/>
  <ellipse cx="40" cy="88" rx="3" ry="1.5" fill="#F5EDE0" transform="rotate(-5 40 88)"/>
  <ellipse cx="50" cy="92" rx="3" ry="1.5" fill="#F5EDE0" transform="rotate(15 50 92)"/>
  <ellipse cx="58" cy="86" rx="3" ry="1.5" fill="#F5EDE0" transform="rotate(-10 58 86)"/>
  <ellipse cx="66" cy="90" rx="3" ry="1.5" fill="#F5EDE0" transform="rotate(8 66 90)"/>
  <ellipse cx="74" cy="88" rx="3" ry="1.5" fill="#F5EDE0" transform="rotate(-15 74 88)"/>
  <ellipse cx="36" cy="94" rx="2.5" ry="1.3" fill="#EDE5D8" transform="rotate(20 36 94)"/>
  <ellipse cx="54" cy="96" rx="2.5" ry="1.3" fill="#EDE5D8" transform="rotate(-8 54 96)"/>
</svg>