<svg viewBox="0 0 120 120" xmlns="http://www.w3.org/2000/svg" fill="none">
  <defs>
    <linearGradient id="jollof-g" x1="30" y1="40" x2="90" y2="90" gradientUnits="userSpaceOnUse">
      <stop offset="0%" stop-color="#E8641B"/>
      <stop offset="100%" stop-color="#C0392B"/>
    </linearGradient>
  </defs>
  <!-- Bowl exterior -->
  <path d="M20 52c0 0 6 40 40 40s40-40 40-40z" fill="#E8895C"/>
  <!-- Bowl rim -->
  <ellipse cx="60" cy="52" rx="40" ry="10" fill="#D4764E"/>
  <!-- Bowl inner -->
  <ellipse cx="60" cy="52" rx="36" ry="8" fill="url(#jollof-g)"/>
  <!-- Rice texture dots -->
  <circle cx="45" cy="50" r="1.5" fill="#F5C842" opacity="0.6"/>
  <circle cx="52" cy="48" r="1.2" fill="#F5C842" opacity="0.5"/>
  <circle cx="60" cy="51" r="1.5" fill="#F5C842" opacity="0.55"/>
  <circle cx="68" cy="49" r="1.3" fill="#F5C842" opacity="0.5"/>
  <circle cx="75" cy="51" r="1.4" fill="#F5C842" opacity="0.45"/>
  <circle cx="48" cy="54" r="1.2" fill="#F5C842" opacity="0.4"/>
  <circle cx="65" cy="55" r="1.3" fill="#F5C842" opacity="0.45"/>
  <!-- Decorative bowl pattern (band) -->
  <path d="M24 60c4 14 16 26 36 26s32-12 36-26" stroke="#A0522D" stroke-width="2" stroke-dasharray="4 3" fill="none" opacity="0.4"/>
  <!-- Garnish leaf -->
  <path d="M56 44c-2-4 0-8 4-8s6 4 4 8c-1 2-3 2-4 2s-3 0-4-2z" fill="#6B9B37" opacity="0.7"/>
</svg>