<svg viewBox="0 0 120 120" xmlns="http://www.w3.org/2000/svg" fill="none">
  <defs>
    <linearGradient id="curry-g" x1="30" y1="40" x2="90" y2="90" gradientUnits="userSpaceOnUse">
      <stop offset="0%" stop-color="#F5A623"/>
      <stop offset="100%" stop-color="#E8641B"/>
    </linearGradient>
  </defs>
  <!-- Bowl exterior -->
  <path d="M20 54c0 0 6 38 40 38s40-38 40-38z" fill="#C0623A"/>
  <!-- Bowl rim -->
  <ellipse cx="60" cy="54" rx="40" ry="10" fill="#D4764E"/>
  <!-- Curry liquid -->
  <ellipse cx="60" cy="54" rx="35" ry="8" fill="url(#curry-g)"/>
  <!-- Swirl pattern in curry -->
  <path d="M42 52c6-2 12 2 18-1s10-3 16 0" stroke="#FCEABB" stroke-width="1.5" stroke-linecap="round" fill="none" opacity="0.5"/>
  <!-- Floating spice dots -->
  <circle cx="40" cy="52" r="2" fill="#C0392B" opacity="0.6"/>
  <circle cx="52" cy="50" r="1.5" fill="#8BC34A" opacity="0.5"/>
  <circle cx="65" cy="53" r="2" fill="#C0392B" opacity="0.5"/>
  <circle cx="78" cy="51" r="1.5" fill="#8BC34A" opacity="0.45"/>
  <circle cx="55" cy="56" r="1.2" fill="#F5D76E" opacity="0.5"/>
  <circle cx="70" cy="55" r="1.3" fill="#F5D76E" opacity="0.45"/>
  <!-- Cilantro leaf garnish -->
  <path d="M58 46c-2-3 0-6 3-5s3 4 1 6c-1 1-2 0-4-1z" fill="#4CAF50" opacity="0.7"/>
  <path d="M62 45c1-3 4-4 5-2s0 5-2 5c-1 0-2-1-3-3z" fill="#388E3C" opacity="0.6"/>
  <!-- Bowl decorative band -->
  <path d="M24 62c4 14 16 24 36 24s32-10 36-24" stroke="#A0522D" stroke-width="1.5" stroke-dasharray="3 2" fill="none" opacity="0.35"/>
</svg>