<svg viewBox="0 0 120 120" xmlns="http://www.w3.org/2000/svg" fill="none">
  <defs>
    <linearGradient id="dumpling-g" x1="30" y1="35" x2="90" y2="85" gradientUnits="userSpaceOnUse">
      <stop offset="0%" stop-color="#FDFAF5"/>
      <stop offset="100%" stop-color="#F0E6D6"/>
    </linearGradient>
  </defs>
  <!-- Dumpling body -->
  <ellipse cx="60" cy="68" rx="32" ry="22" fill="url(#dumpling-g)"/>
  <!-- Pleated top edge -->
  <path d="M30 62c4-8 10-18 30-18s26 10 30 18" fill="#F5EDE0"/>
  <!-- Pleat folds -->
  <path d="M38 56c2-3 4-6 6-6" stroke="#D4C4B0" stroke-width="1.5" stroke-linecap="round" fill="none" opacity="0.5"/>
  <path d="M46 50c2-2 3-4 5-4" stroke="#D4C4B0" stroke-width="1.5" stroke-linecap="round" fill="none" opacity="0.5"/>
  <path d="M54 47c1-1 3-3 5-2" stroke="#D4C4B0" stroke-width="1.5" stroke-linecap="round" fill="none" opacity="0.5"/>
  <path d="M62 46c2-1 3-2 5-1" stroke="#D4C4B0" stroke-width="1.5" stroke-linecap="round" fill="none" opacity="0.5"/>
  <path d="M70 48c2 0 4 1 5 3" stroke="#D4C4B0" stroke-width="1.5" stroke-linecap="round" fill="none" opacity="0.5"/>
  <path d="M76 52c2 1 3 3 4 5" stroke="#D4C4B0" stroke-width="1.5" stroke-linecap="round" fill="none" opacity="0.5"/>
  <!-- Pinch line top -->
  <path d="M36 60c6-12 14-18 24-18s18 6 24 18" stroke="#D4C4B0" stroke-width="1.8" stroke-linecap="round" fill="none" opacity="0.4"/>
  <!-- Shadow underneath -->
  <ellipse cx="60" cy="90" rx="28" ry="5" fill="#D4C4B0" opacity="0.2"/>
  <!-- Steam -->
  <path d="M48 34c-1-5 2-8 1-14" stroke="#D4C4B0" stroke-width="1.8" stroke-linecap="round" opacity="0.4"/>
  <path d="M58 30c0-4 2-8 1-14" stroke="#D4C4B0" stroke-width="1.8" stroke-linecap="round" opacity="0.35"/>
  <path d="M68 34c1-5-1-8 0-14" stroke="#D4C4B0" stroke-width="1.8" stroke-linecap="round" opacity="0.3"/>
</svg>