<svg viewBox="0 0 120 120" xmlns="http://www.w3.org/2000/svg" fill="none">
  <defs>
    <linearGradient id="bowl-g" x1="30" y1="40" x2="90" y2="100" gradientUnits="userSpaceOnUse">
      <stop offset="0%" stop-color="#FDFAF5"/>
      <stop offset="100%" stop-color="#E8DFD0"/>
    </linearGradient>
  </defs>
  <!-- Bowl body -->
  <path d="M22 50c0 0 4 40 38 40s38-40 38-40z" fill="url(#bowl-g)"/>
  <!-- Bowl rim -->
  <ellipse cx="60" cy="50" rx="38" ry="9" fill="#F0E6D6"/>
  <!-- Salad bed (green) -->
  <ellipse cx="60" cy="52" rx="30" ry="7" fill="#7CB342" opacity="0.5"/>
  <!-- Feta crumbles -->
  <rect x="44" y="46" width="8" height="6" rx="2" fill="#FAFAFA" transform="rotate(-8 48 49)"/>
  <rect x="56" y="44" width="7" height="5.5" rx="2" fill="#FAFAFA" transform="rotate(5 59 47)"/>
  <rect x="68" y="47" width="6" height="5" rx="1.5" fill="#FAFAFA" transform="rotate(-3 71 49)"/>
  <!-- Olives -->
  <ellipse cx="42" cy="52" rx="4" ry="3.5" fill="#4A2C2A"/>
  <ellipse cx="74" cy="50" rx="3.5" ry="3" fill="#4A2C2A"/>
  <ellipse cx="58" cy="55" rx="3" ry="2.5" fill="#2E1F1C"/>
  <!-- Olive highlights -->
  <ellipse cx="41" cy="51" rx="1.2" ry="0.8" fill="#6B4433" opacity="0.6"/>
  <ellipse cx="73" cy="49" rx="1" ry="0.7" fill="#6B4433" opacity="0.6"/>
  <!-- Tomato wedge -->
  <path d="M50 56c2-1 5 0 5 2s-3 3-5 2s-2-3 0-4z" fill="#E74C3C" opacity="0.7"/>
</svg>