<svg viewBox="0 0 120 120" xmlns="http://www.w3.org/2000/svg" fill="none">
  <defs>
    <linearGradient id="pho-g" x1="30" y1="40" x2="90" y2="90" gradientUnits="userSpaceOnUse">
      <stop offset="0%" stop-color="#F5EDE0"/>
      <stop offset="100%" stop-color="#E8DFD0"/>
    </linearGradient>
  </defs>
  <!-- Bowl -->
  <path d="M18 54c0 0 6 38 42 38s42-38 42-38z" fill="url(#pho-g)"/>
  <!-- Bowl rim -->
  <ellipse cx="60" cy="54" rx="42" ry="10" fill="#F0E6D6"/>
  <!-- Broth -->
  <ellipse cx="60" cy="54" rx="37" ry="8" fill="#D4952B" opacity="0.4"/>
  <!-- Noodle swirls -->
  <path d="M35 54c5-2 10 2 15-1s8-3 12 0s8 2 13-1" stroke="#F5EDE0" stroke-width="2" stroke-linecap="round" fill="none" opacity="0.7"/>
  <path d="M38 58c4-1 8 1 12-1s6-2 10 0s6 1 10-1" stroke="#F5EDE0" stroke-width="1.5" stroke-linecap="round" fill="none" opacity="0.5"/>
  <!-- Beef slices -->
  <ellipse cx="48" cy="50" rx="5" ry="3" fill="#8B4513" opacity="0.7" transform="rotate(-10 48 50)"/>
  <ellipse cx="62" cy="48" rx="4.5" ry="2.5" fill="#8B4513" opacity="0.6" transform="rotate(8 62 48)"/>
  <!-- Fresh herbs -->
  <path d="M70 46c1-3 4-4 5-2s-1 4-3 4c-1 0-2-1-2-2z" fill="#4CAF50" opacity="0.7"/>
  <path d="M74 50c1-2 3-3 4-1s0 3-2 3c-1 0-2-1-2-2z" fill="#388E3C" opacity="0.6"/>
  <!-- Bean sprouts -->
  <path d="M38 48c-2-2 0-5 2-4" stroke="#F5D76E" stroke-width="1.2" stroke-linecap="round" opacity="0.5"/>
  <path d="M35 50c-1-2 1-4 3-3" stroke="#F5D76E" stroke-width="1" stroke-linecap="round" opacity="0.4"/>
  <!-- Lime wedge -->
  <path d="M42 44c2-2 5-1 5 1s-2 3-4 2-2-2-1-3z" fill="#8BC34A" opacity="0.5"/>
  <!-- Chili -->
  <ellipse cx="55" cy="46" rx="3" ry="1.2" fill="#E84233" opacity="0.5" transform="rotate(-15 55 46)"/>
</svg>