<svg viewBox="0 0 120 120" xmlns="http://www.w3.org/2000/svg" fill="none">
  <defs>
    <linearGradient id="tagine-g" x1="35" y1="30" x2="85" y2="90" gradientUnits="userSpaceOnUse">
      <stop offset="0%" stop-color="#E8895C"/>
      <stop offset="100%" stop-color="#C0623A"/>
    </linearGradient>
  </defs>
  <!-- Base plate -->
  <ellipse cx="60" cy="88" rx="38" ry="10" fill="#A0522D"/>
  <ellipse cx="60" cy="86" rx="36" ry="8" fill="#C0623A"/>
  <!-- Conical lid -->
  <path d="M28 80c0 0 14-42 32-42s32 42 32 42z" fill="url(#tagine-g)"/>
  <!-- Lid ridge lines (decorative) -->
  <path d="M40 72c6-16 12-24 20-24s14 8 20 24" stroke="#A0522D" stroke-width="1.2" stroke-linecap="round" fill="none" opacity="0.3"/>
  <path d="M46 76c4-12 8-18 14-18s10 6 14 18" stroke="#A0522D" stroke-width="1" stroke-linecap="round" fill="none" opacity="0.25"/>
  <!-- Lid knob -->
  <circle cx="60" cy="36" r="5" fill="#A0522D"/>
  <circle cx="60" cy="36" r="3" fill="#E8895C"/>
  <!-- Steam -->
  <path d="M50 28c-1-5 2-8 1-14" stroke="#D4C4B0" stroke-width="1.8" stroke-linecap="round" opacity="0.4"/>
  <path d="M60 26c0-4 2-7 1-13" stroke="#D4C4B0" stroke-width="1.8" stroke-linecap="round" opacity="0.35"/>
  <path d="M70 28c1-5-2-8-1-14" stroke="#D4C4B0" stroke-width="1.8" stroke-linecap="round" opacity="0.3"/>
</svg>