<svg viewBox="0 0 120 120" xmlns="http://www.w3.org/2000/svg" fill="none">
  <defs>
    <linearGradient id="tortilla-g" x1="25" y1="30" x2="95" y2="90" gradientUnits="userSpaceOnUse">
      <stop offset="0%" stop-color="#F2C14E"/>
      <stop offset="100%" stop-color="#D4952B"/>
    </linearGradient>
  </defs>
  <!-- Taco shell -->
  <path d="M20 82c0-8 8-52 40-52s40 44 40 52c0 0-16 4-40 4S20 82 20 82z" fill="url(#tortilla-g)"/>
  <!-- Shell inner shadow -->
  <path d="M28 78c0-6 6-40 32-40s32 34 32 40" fill="#C8841A" opacity="0.3"/>
  <!-- Meat filling -->
  <path d="M36 68c4-10 10-18 24-18s20 8 24 18c0 0-8 6-24 6S36 68 36 68z" fill="#8B4513"/>
  <!-- Lettuce -->
  <path d="M32 62c4-2 10 2 16-1s10 2 14-1s8 2 12 0" stroke="#4CAF50" stroke-width="4" stroke-linecap="round" fill="none"/>
  <!-- Tomato chunks -->
  <circle cx="44" cy="56" r="3.5" fill="#E74C3C" opacity="0.8"/>
  <circle cx="58" cy="54" r="3" fill="#E74C3C" opacity="0.7"/>
  <circle cx="72" cy="56" r="3.5" fill="#E74C3C" opacity="0.75"/>
  <!-- Cheese shreds -->
  <path d="M40 52c1-3 3-2 3 0" stroke="#F5C842" stroke-width="1.5" stroke-linecap="round" fill="none"/>
  <path d="M52 50c1-3 3-2 3 0" stroke="#F5C842" stroke-width="1.5" stroke-linecap="round" fill="none"/>
  <path d="M50 48c0-3 3-2 3 0" stroke="#F5C842" stroke-width="1.5" stroke-linecap="round" fill="none"/>
  <path d="M64 52c1-3 3-2 3 0" stroke="#F5C842" stroke-width="1.5" stroke-linecap="round" fill="none"/>
  <!-- Avocado/guac -->
  <circle cx="52" cy="60" r="2.5" fill="#8BC34A" opacity="0.6"/>
  <circle cx="66" cy="60" r="2" fill="#8BC34A" opacity="0.5"/>
</svg>