<svg viewBox="0 0 120 120" xmlns="http://www.w3.org/2000/svg" fill="none">
  <defs>
    <linearGradient id="paella-g" x1="30" y1="40" x2="90" y2="90" gradientUnits="userSpaceOnUse">
      <stop offset="0%" stop-color="#F5C842"/>
      <stop offset="100%" stop-color="#E8A617"/>
    </linearGradient>
  </defs>
  <!-- Pan body -->
  <ellipse cx="60" cy="68" rx="38" ry="26" fill="#3D3D3D"/>
  <!-- Rice bed -->
  <ellipse cx="60" cy="65" rx="34" ry="22" fill="url(#paella-g)"/>
  <!-- Handle left -->
  <rect x="10" y="63" width="16" height="6" rx="3" fill="#3D3D3D"/>
  <!-- Handle right -->
  <rect x="94" y="63" width="16" height="6" rx="3" fill="#3D3D3D"/>
  <!-- Shrimp 1 -->
  <path d="M50 55c-3-6 2-10 6-8s5 7 2 10c-2 2-5 1-5 1" stroke="#E8641B" stroke-width="3" stroke-linecap="round" fill="none"/>
  <!-- Shrimp 2 -->
  <path d="M68 52c-2-5 3-9 7-7s4 7 1 9c-2 1-4 0-4 0" stroke="#E8641B" stroke-width="3" stroke-linecap="round" fill="none"/>
  <!-- Peas -->
  <circle cx="45" cy="68" r="2.5" fill="#6B9B37"/>
  <circle cx="55" cy="72" r="2" fill="#6B9B37"/>
  <circle cx="72" cy="66" r="2.5" fill="#6B9B37"/>
  <circle cx="62" cy="75" r="2" fill="#6B9B37"/>
  <!-- Red pepper strips -->
  <rect x="48" y="62" width="8" height="2.5" rx="1.2" fill="#C0392B" transform="rotate(-20 52 63)" opacity="0.8"/>
  <rect x="64" y="69" width="7" height="2.5" rx="1.2" fill="#C0392B" transform="rotate(15 67 70)" opacity="0.7"/>
</svg>